<svg xmlns="http://www.w3.org/2000/svg" viewBox="0 0 512 512" role="img" aria-label="CoachOS XC"><defs><linearGradient id="g" x1="0" y1="0" x2="1" y2="1"><stop offset="0" stop-color="#0b1739"/><stop offset="1" stop-color="#174ea6"/></linearGradient></defs><rect width="512" height="512" rx="112" fill="url(#g)"/><path d="M116 256c0-77 62-140 140-140 39 0 74 16 99 42l-43 43c-14-15-34-24-56-24-43 0-79 35-79 79s36 79 79 79c22 0 42-9 56-24l43 43c-25 26-60 42-99 42-78 0-140-63-140-140Z" fill="#fff"/><path d="m322 191 74 130h-53l-48-84-48 84h-53l74-130h54Z" fill="#f4b942"/></svg>